# xmcd
#
# Track frame offsets: 
#        150
#        12771
#        25075
#        42615
#        54334
#        68260
#        94819
#        110380
#        136442
#        151789
#        181881
#        199192
#
# Disc length: 2836 seconds
#
# Revision: 0
# Processed by: cddbd v1.5.2PL0 Copyright (c) Steve Scherf et al.
# Submitted via: ExactAudioCopyFreeDBPlugin 1.0
#
DISCID=910b120c
DTITLE=Various Artist - Icon Celebrates Black History
DYEAR=2011
DGENRE=Soul
TTITLE0=James Brown - I Got You (I Feel Good)
TTITLE1=Diana Ross and The Supremes - You Keep Me Hangin' On
TTITLE2=Marvin Gay - What's Going On
TTITLE3=The Jackson 5 - Dancing Machine
TTITLE4=The Four Tops - Ain't No Woman (Like The One I've Got)
TTITLE5=Smokey Robinson - Cruisin'
TTITLE6=Kool and the Gang - Ladies Night
TTITLE7=Parliament - Flash Light
TTITLE8=Rick James - Super Freak
TTITLE9=Teena Marie - Square Biz
TTITLE10=DeBarge - Rhythm Of The Night
TTITLE11=Etta James - At Last
EXTD=
EXTT0=
EXTT1=
EXTT2=
EXTT3=
EXTT4=
EXTT5=
EXTT6=
EXTT7=
EXTT8=
EXTT9=
EXTT10=
EXTT11=
PLAYORDER=
